<?xml version="1.0" encoding="UTF-8"?>
<svg id="Construction" xmlns="http://www.w3.org/2000/svg" version="1.1" viewBox="0 0 355.9 355.9">
  <defs>
    <style>
      .cls-1 {
        opacity: .6;
      }

      .cls-1, .cls-2, .cls-3, .cls-4, .cls-5, .cls-6, .cls-7 {
        stroke-width: 0px;
      }

      .cls-1, .cls-2, .cls-4, .cls-5, .cls-6, .cls-7 {
        fill: #fff;
      }

      .cls-2 {
        opacity: .3;
      }

      .cls-3 {
        fill: #e710ab;
      }

      .cls-4 {
        opacity: .8;
      }

      .cls-5 {
        opacity: .5;
      }

      .cls-7 {
        opacity: 0;
      }
    </style>
  </defs>
  <circle class="cls-3" cx="177.9" cy="177.9" r="177.9"/>
  <g id="eLeGarage_Simple">
    <path class="cls-7" d="M275.4,190.2c.2-1.4.3-2.8.4-4.2h-134.9v4.2h-14.9v5.5h14.9v5.5h-9.9v2.9h111c-2.5,9.3-6.9,17.9-12.7,25.5h-9.9c-1.2,1.6-2.5,3.1-3.8,4.6h9.9c-4.2,4.7-9,8.9-14.1,12.6h5c-6.3,4.5-13.2,8.1-20.5,10.8h-14.9c-9.3,3.5-19.3,5.3-29.2,5.3s-21-1.9-30.6-5.3h14.9c-7.5-2.7-14.5-6.3-20.9-10.8h-5c-5.2-3.7-10.1-7.9-14.3-12.6h-9.9c-1.4-1.5-2.7-3-3.9-4.6h9.9c-6.6-8.3-11.6-17.9-14.6-28.4h9.9c-.5-1.8-.9-3.6-1.3-5.5h-14.9c-.4-1.8-.7-3.6-1-5.5h14.9c-.3-1.8-.5-3.7-.6-5.5h-14.9c-.2-2.1-.3-4.3-.3-6.4s.1-5.3.4-8h5c.1-1.3.3-2.6.5-3.8,1.1-7.8,3.3-15.3,6.4-22.2h5c.4-.9.8-1.8,1.3-2.7h-5c.7-1.5,1.5-2.9,2.3-4.3h-9.9c3-5.3,6.6-10.3,10.7-14.8h14.9c6.1-6.9,13.3-12.8,21.4-17.4h5c2.2-1.3,4.5-2.5,6.8-3.6h-9.9c11.4-5.3,24-8.3,37.2-8.3s25.3,3,36.7,8.3h9.9c2.3,1.1,4.5,2.3,6.7,3.6h-5c8,4.7,15.1,10.5,20.8,17.4h-14.9c2.4,2.9,4.6,5.9,6.5,9.1h23.1c-1.3-3-2.8-6.1-4.7-9.1h14.9c-3.7-6-8.6-11.9-14.4-17.4h5c-1.3-1.2-2.6-2.4-4-3.6h-9.9c-5.3-4.5-11.2-8.6-17.7-12.3h-6.8c-4.9-2.7-10.1-5.1-15.6-7.2h28.2c-4.1-1.5-8.2-2.8-12.5-3.8h-21.4c-8-2-16.5-3.1-25.2-3.1s-17.4,1.1-25.6,3.1h21.4c-4.3,1-8.5,2.3-12.5,3.8h-28.2c-5.4,2-10.5,4.4-15.4,7.2h6.8c-6.2,3.5-12,7.6-17.4,12.3h9.9c-1.3,1.2-2.6,2.3-3.9,3.6h-5c-5.5,5.3-10.4,11.1-14.6,17.4h-14.9c-3.1,4.7-5.9,9.6-8.2,14.8h9.9c-.6,1.4-1.2,2.9-1.8,4.3h5c-.3.9-.7,1.8-1,2.7h-5c-2.6,7.1-4.3,14.5-5.2,22.2-.1,1.3-.3,2.6-.4,3.8h-5c-.2,2.5-.3,5.1-.3,7.7s.1,4.5.2,6.7h14.9c.1,1.9.3,3.7.5,5.5h-14.9c.2,1.8.5,3.7.8,5.5h14.9c.3,1.8.7,3.7,1.1,5.5h-9.9c2.5,10.2,6.5,19.7,11.8,28.4h-9.9c1,1.6,2,3.1,3,4.6h9.9c3.1,4.5,6.5,8.7,10.3,12.6h5c3.7,3.9,7.7,7.5,11.9,10.8h-14.9c4.6,3.6,9.5,6.8,14.6,9.6h19.8c7.4,4.1,15.2,7.3,23.3,9.6h-9.9c9.4,2.7,19.1,4.1,28.9,4.1s20.2-1.4,29.6-4.1h9.9c8.1-2.3,15.8-5.6,23-9.6h-19.8c5-2.8,9.8-6,14.3-9.6h14.9c4.1-3.3,8-6.9,11.6-10.8h-5c3.6-3.9,6.9-8.2,9.9-12.6h-9.9c1-1.5,2-3,2.9-4.6h9.9c5.2-8.7,9.1-18.3,11.5-28.4h9.9c.4-1.8.8-3.6,1.1-5.5h-14.9c.3-1.8.6-3.6.8-5.5h14.9Z"/>
    <path class="cls-2" d="M281.6,190.2c.2-1.4.3-2.8.4-4.2h-134.9v4.2h-14.9v5.5h14.9v5.5h-9.9v2.9h111c-2.5,9.3-6.9,17.9-12.7,25.5h-9.9c-1.2,1.6-2.5,3.1-3.8,4.6h9.9c-4.2,4.7-9,8.9-14.1,12.6h5c-6.3,4.5-13.2,8.1-20.5,10.8h-14.9c-9.3,3.5-19.3,5.3-29.2,5.3s-21-1.9-30.6-5.3h14.9c-7.5-2.7-14.5-6.3-20.9-10.8h-5c-5.2-3.7-10.1-7.9-14.3-12.6h-9.9c-1.4-1.5-2.7-3-3.9-4.6h9.9c-6.6-8.3-11.6-17.9-14.6-28.4h9.9c-.5-1.8-.9-3.6-1.3-5.5h-14.9c-.4-1.8-.7-3.6-1-5.5h14.9c-.3-1.8-.5-3.7-.6-5.5h-14.9c-.2-2.1-.3-4.3-.3-6.4s.1-5.3.4-8h5c.1-1.3.3-2.6.5-3.8,1.1-7.8,3.3-15.3,6.4-22.2h5c.4-.9.8-1.8,1.3-2.7h-5c.7-1.5,1.5-2.9,2.3-4.3h-9.9c3-5.3,6.6-10.3,10.7-14.8h14.9c6.1-6.9,13.3-12.8,21.4-17.4h5c2.2-1.3,4.5-2.5,6.8-3.6h-9.9c11.4-5.3,24-8.3,37.2-8.3s25.3,3,36.7,8.3h9.9c2.3,1.1,4.5,2.3,6.7,3.6h-5c8,4.7,15.1,10.5,20.8,17.4h-14.9c2.4,2.9,4.6,5.9,6.5,9.1h23.1c-1.3-3-2.8-6.1-4.7-9.1h14.9c-3.7-6-8.6-11.9-14.4-17.4h5c-1.3-1.2-2.6-2.4-4-3.6h-9.9c-5.3-4.5-11.2-8.6-17.7-12.3h-6.8c-4.9-2.7-10.1-5.1-15.6-7.2h28.2c-4.1-1.5-8.2-2.8-12.5-3.8h-21.4c-8-2-16.5-3.1-25.2-3.1s-17.4,1.1-25.6,3.1h21.4c-4.3,1-8.5,2.3-12.5,3.8h-28.2c-5.4,2-10.5,4.4-15.4,7.2h6.8c-6.2,3.5-12,7.6-17.4,12.3h9.9c-1.3,1.2-2.6,2.3-3.9,3.6h-5c-5.5,5.3-10.4,11.1-14.6,17.4h-14.9c-3.1,4.7-5.9,9.6-8.2,14.8h9.9c-.6,1.4-1.2,2.9-1.8,4.3h5c-.3.9-.7,1.8-1,2.7h-5c-2.6,7.1-4.3,14.5-5.2,22.2-.1,1.3-.3,2.6-.4,3.8h-5c-.2,2.5-.3,5.1-.3,7.7s.1,4.5.2,6.7h14.9c.1,1.9.3,3.7.5,5.5h-14.9c.2,1.8.5,3.7.8,5.5h14.9c.3,1.8.7,3.7,1.1,5.5h-9.9c2.5,10.2,6.5,19.7,11.8,28.4h-9.9c1,1.6,2,3.1,3,4.6h9.9c3.1,4.5,6.5,8.7,10.3,12.6h5c3.7,3.9,7.7,7.5,11.9,10.8h-14.9c4.6,3.6,9.5,6.8,14.6,9.6h19.8c7.4,4.1,15.2,7.3,23.3,9.6h-9.9c9.4,2.7,19.1,4.1,28.9,4.1s20.2-1.4,29.6-4.1h9.9c8.1-2.3,15.8-5.6,23-9.6h-19.8c5-2.8,9.8-6,14.3-9.6h14.9c4.1-3.3,8-6.9,11.6-10.8h-5c3.6-3.9,6.9-8.2,9.9-12.6h-9.9c1-1.5,2-3,2.9-4.6h9.9c5.2-8.7,9.1-18.3,11.5-28.4h9.9c.4-1.8.8-3.6,1.1-5.5h-14.9c.3-1.8.6-3.6.8-5.5h14.9Z"/>
    <path class="cls-5" d="M287.7,190.2c.2-1.4.3-2.8.4-4.2h-134.9v4.2h-14.9v5.5h14.9v5.5h-9.9v2.9h111c-2.5,9.3-6.9,17.9-12.7,25.5h-9.9c-1.2,1.6-2.5,3.1-3.8,4.6h9.9c-4.2,4.7-9,8.9-14.1,12.6h5c-6.3,4.5-13.2,8.1-20.5,10.8h-14.9c-9.3,3.5-19.3,5.3-29.2,5.3s-21-1.9-30.6-5.3h14.9c-7.5-2.7-14.5-6.3-20.9-10.8h-5c-5.2-3.7-10.1-7.9-14.3-12.6h-9.9c-1.4-1.5-2.7-3-3.9-4.6h9.9c-6.6-8.3-11.6-17.9-14.6-28.4h9.9c-.5-1.8-.9-3.6-1.3-5.5h-14.9c-.4-1.8-.7-3.6-1-5.5h14.9c-.3-1.8-.5-3.7-.6-5.5h-14.9c-.2-2.1-.3-4.3-.3-6.4s.1-5.3.4-8h5c.1-1.3.3-2.6.5-3.8,1.1-7.8,3.3-15.3,6.4-22.2h5c.4-.9.8-1.8,1.3-2.7h-5c.7-1.5,1.5-2.9,2.3-4.3h-9.9c3-5.3,6.6-10.3,10.7-14.8h14.9c6.1-6.9,13.3-12.8,21.4-17.4h5c2.2-1.3,4.5-2.5,6.8-3.6h-9.9c11.4-5.3,24-8.3,37.2-8.3s25.3,3,36.7,8.3h9.9c2.3,1.1,4.5,2.3,6.7,3.6h-5c8,4.7,15.1,10.5,20.8,17.4h-14.9c2.4,2.9,4.6,5.9,6.5,9.1h23.1c-1.3-3-2.8-6.1-4.7-9.1h14.9c-3.7-6-8.6-11.9-14.4-17.4h5c-1.3-1.2-2.6-2.4-4-3.6h-9.9c-5.3-4.5-11.2-8.6-17.7-12.3h-6.8c-4.9-2.7-10.1-5.1-15.6-7.2h28.2c-4.1-1.5-8.2-2.8-12.5-3.8h-21.4c-8-2-16.5-3.1-25.2-3.1s-17.4,1.1-25.6,3.1h21.4c-4.3,1-8.5,2.3-12.5,3.8h-28.2c-5.4,2-10.5,4.4-15.4,7.2h6.8c-6.2,3.5-12,7.6-17.4,12.3h9.9c-1.3,1.2-2.6,2.3-3.9,3.6h-5c-5.5,5.3-10.4,11.1-14.6,17.4h-14.9c-3.1,4.7-5.9,9.6-8.2,14.8h9.9c-.6,1.4-1.2,2.9-1.8,4.3h5c-.3.9-.7,1.8-1,2.7h-5c-2.6,7.1-4.3,14.5-5.2,22.2-.1,1.3-.3,2.6-.4,3.8h-5c-.2,2.5-.3,5.1-.3,7.7s.1,4.5.2,6.7h14.9c.1,1.9.3,3.7.5,5.5h-14.9c.2,1.8.5,3.7.8,5.5h14.9c.3,1.8.7,3.7,1.1,5.5h-9.9c2.5,10.2,6.5,19.7,11.8,28.4h-9.9c1,1.6,2,3.1,3,4.6h9.9c3.1,4.5,6.5,8.7,10.3,12.6h5c3.7,3.9,7.7,7.5,11.9,10.8h-14.9c4.6,3.6,9.5,6.8,14.6,9.6h19.8c7.4,4.1,15.2,7.3,23.3,9.6h-9.9c9.4,2.7,19.1,4.1,28.9,4.1s20.2-1.4,29.6-4.1h9.9c8.1-2.3,15.8-5.6,23-9.6h-19.8c5-2.8,9.8-6,14.3-9.6h14.9c4.1-3.3,8-6.9,11.6-10.8h-5c3.6-3.9,6.9-8.2,9.9-12.6h-9.9c1-1.5,2-3,2.9-4.6h9.9c5.2-8.7,9.1-18.3,11.5-28.4h9.9c.4-1.8.8-3.6,1.1-5.5h-14.9c.3-1.8.6-3.6.8-5.5h14.9Z"/>
    <path class="cls-1" d="M293.9,190.2c.2-1.4.3-2.8.4-4.2h-134.9v4.2h-14.9v5.5h14.9v5.5h-9.9v2.9h111c-2.5,9.3-6.9,17.9-12.7,25.5h-9.9c-1.2,1.6-2.5,3.1-3.8,4.6h9.9c-4.2,4.7-9,8.9-14.1,12.6h5c-6.3,4.5-13.2,8.1-20.5,10.8h-14.9c-9.3,3.5-19.3,5.3-29.2,5.3s-21-1.9-30.6-5.3h14.9c-7.5-2.7-14.5-6.3-20.9-10.8h-5c-5.2-3.7-10.1-7.9-14.3-12.6h-9.9c-1.4-1.5-2.7-3-3.9-4.6h9.9c-6.6-8.3-11.6-17.9-14.6-28.4h9.9c-.5-1.8-.9-3.6-1.3-5.5h-14.9c-.4-1.8-.7-3.6-1-5.5h14.9c-.3-1.8-.5-3.7-.6-5.5h-14.9c-.2-2.1-.3-4.3-.3-6.4s.1-5.3.4-8h5c.1-1.3.3-2.6.5-3.8,1.1-7.8,3.3-15.3,6.4-22.2h5c.4-.9.8-1.8,1.3-2.7h-5c.7-1.5,1.5-2.9,2.3-4.3h-9.9c3-5.3,6.6-10.3,10.7-14.8h14.9c6.1-6.9,13.3-12.8,21.4-17.4h5c2.2-1.3,4.5-2.5,6.8-3.6h-9.9c11.4-5.3,24-8.3,37.2-8.3s25.3,3,36.7,8.3h9.9c2.3,1.1,4.5,2.3,6.7,3.6h-5c8,4.7,15.1,10.5,20.8,17.4h-14.9c2.4,2.9,4.6,5.9,6.5,9.1h23.1c-1.3-3-2.8-6.1-4.7-9.1h14.9c-3.7-6-8.6-11.9-14.4-17.4h5c-1.3-1.2-2.6-2.4-4-3.6h-9.9c-5.3-4.5-11.2-8.6-17.7-12.3h-6.8c-4.9-2.7-10.1-5.1-15.6-7.2h28.2c-4.1-1.5-8.2-2.8-12.5-3.8h-21.4c-8-2-16.5-3.1-25.2-3.1s-17.4,1.1-25.6,3.1h21.4c-4.3,1-8.5,2.3-12.5,3.8h-28.2c-5.4,2-10.5,4.4-15.4,7.2h6.8c-6.2,3.5-12,7.6-17.4,12.3h9.9c-1.3,1.2-2.6,2.3-3.9,3.6h-5c-5.5,5.3-10.4,11.1-14.6,17.4h-14.9c-3.1,4.7-5.9,9.6-8.2,14.8h9.9c-.6,1.4-1.2,2.9-1.8,4.3h5c-.3.9-.7,1.8-1,2.7h-5c-2.6,7.1-4.3,14.5-5.2,22.2-.1,1.3-.3,2.6-.4,3.8h-5c-.2,2.5-.3,5.1-.3,7.7s.1,4.5.2,6.7h14.9c.1,1.9.3,3.7.5,5.5h-14.9c.2,1.8.5,3.7.8,5.5h14.9c.3,1.8.7,3.7,1.1,5.5h-9.9c2.5,10.2,6.5,19.7,11.8,28.4h-9.9c1,1.6,2,3.1,3,4.6h9.9c3.1,4.5,6.5,8.7,10.3,12.6h5c3.7,3.9,7.7,7.5,11.9,10.8h-14.9c4.6,3.6,9.5,6.8,14.6,9.6h19.8c7.4,4.1,15.2,7.3,23.3,9.6h-9.9c9.4,2.7,19.1,4.1,28.9,4.1s20.2-1.4,29.6-4.1h9.9c8.1-2.3,15.8-5.6,23-9.6h-19.8c5-2.8,9.8-6,14.3-9.6h14.9c4.1-3.3,8-6.9,11.6-10.8h-5c3.6-3.9,6.9-8.2,9.9-12.6h-9.9c1-1.5,2-3,2.9-4.6h9.9c5.2-8.7,9.1-18.3,11.5-28.4h9.9c.4-1.8.8-3.6,1.1-5.5h-14.9c.3-1.8.6-3.6.8-5.5h14.9Z"/>
    <path class="cls-4" d="M300.1,190.2c.2-1.4.3-2.8.4-4.2h-134.9v4.2h-14.9v5.5h14.9v5.5h-9.9v2.9h111c-2.5,9.3-6.9,17.9-12.7,25.5h-9.9c-1.2,1.6-2.5,3.1-3.8,4.6h9.9c-4.2,4.7-9,8.9-14.1,12.6h5c-6.3,4.5-13.2,8.1-20.5,10.8h-14.9c-9.3,3.5-19.3,5.3-29.2,5.3s-21-1.9-30.6-5.3h14.9c-7.5-2.7-14.5-6.3-20.9-10.8h-5c-5.2-3.7-10.1-7.9-14.3-12.6h-9.9c-1.4-1.5-2.7-3-3.9-4.6h9.9c-6.6-8.3-11.6-17.9-14.6-28.4h9.9c-.5-1.8-.9-3.6-1.3-5.5h-14.9c-.4-1.8-.7-3.6-1-5.5h14.9c-.3-1.8-.5-3.7-.6-5.5h-14.9c-.2-2.1-.3-4.3-.3-6.4s.1-5.3.4-8h5c.1-1.3.3-2.6.5-3.8,1.1-7.8,3.3-15.3,6.4-22.2h5c.4-.9.8-1.8,1.3-2.7h-5c.7-1.5,1.5-2.9,2.3-4.3h-9.9c3-5.3,6.6-10.3,10.7-14.8h14.9c6.1-6.9,13.3-12.8,21.4-17.4h5c2.2-1.3,4.5-2.5,6.8-3.6h-9.9c11.4-5.3,24-8.3,37.2-8.3s25.3,3,36.7,8.3h9.9c2.3,1.1,4.5,2.3,6.7,3.6h-5c8,4.7,15.1,10.5,20.8,17.4h-14.9c2.4,2.9,4.6,5.9,6.5,9.1h23.1c-1.3-3-2.8-6.1-4.7-9.1h14.9c-3.7-6-8.6-11.9-14.4-17.4h5c-1.3-1.2-2.6-2.4-4-3.6h-9.9c-5.3-4.5-11.2-8.6-17.7-12.3h-6.8c-4.9-2.7-10.1-5.1-15.6-7.2h28.2c-4.1-1.5-8.2-2.8-12.5-3.8h-21.4c-8-2-16.5-3.1-25.2-3.1s-17.4,1.1-25.6,3.1h21.4c-4.3,1-8.5,2.3-12.5,3.8h-28.2c-5.4,2-10.5,4.4-15.4,7.2h6.8c-6.2,3.5-12,7.6-17.4,12.3h9.9c-1.3,1.2-2.6,2.3-3.9,3.6h-5c-5.5,5.3-10.4,11.1-14.6,17.4h-14.9c-3.1,4.7-5.9,9.6-8.2,14.8h9.9c-.6,1.4-1.2,2.9-1.8,4.3h5c-.3.9-.7,1.8-1,2.7h-5c-2.6,7.1-4.3,14.5-5.2,22.2-.1,1.3-.3,2.6-.4,3.8h-5c-.2,2.5-.3,5.1-.3,7.7s.1,4.5.2,6.7h14.9c.1,1.9.3,3.7.5,5.5h-14.9c.2,1.8.5,3.7.8,5.5h14.9c.3,1.8.7,3.7,1.1,5.5h-9.9c2.5,10.2,6.5,19.7,11.8,28.4h-9.9c1,1.6,2,3.1,3,4.6h9.9c3.1,4.5,6.5,8.7,10.3,12.6h5c3.7,3.9,7.7,7.5,11.9,10.8h-14.9c4.6,3.6,9.5,6.8,14.6,9.6h19.8c7.4,4.1,15.2,7.3,23.3,9.6h-9.9c9.4,2.7,19.1,4.1,28.9,4.1s20.2-1.4,29.6-4.1h9.9c8.1-2.3,15.8-5.6,23-9.6h-19.8c5-2.8,9.8-6,14.3-9.6h14.9c4.1-3.3,8-6.9,11.6-10.8h-5c3.6-3.9,6.9-8.2,9.9-12.6h-9.9c1-1.5,2-3,2.9-4.6h9.9c5.2-8.7,9.1-18.3,11.5-28.4h9.9c.4-1.8.8-3.6,1.1-5.5h-14.9c.3-1.8.6-3.6.8-5.5h14.9Z"/>
    <path class="cls-6" d="M306.2,190.2c.2-1.4.3-2.8.4-4.2h-134.9v4.2h-14.9v5.5h14.9v5.5h-9.9v2.9h111c-2.5,9.3-6.9,17.9-12.7,25.5h-9.9c-1.2,1.6-2.5,3.1-3.8,4.6h9.9c-4.2,4.7-9,8.9-14.1,12.6h5c-6.3,4.5-13.2,8.1-20.5,10.8h-14.9c-9.3,3.5-19.3,5.3-29.2,5.3s-21-1.9-30.6-5.3h14.9c-7.5-2.7-14.5-6.3-20.9-10.8h-5c-5.2-3.7-10.1-7.9-14.3-12.6h-9.9c-1.4-1.5-2.7-3-3.9-4.6h9.9c-6.6-8.3-11.6-17.9-14.6-28.4h9.9c-.5-1.8-.9-3.6-1.3-5.5h-14.9c-.4-1.8-.7-3.6-1-5.5h14.9c-.3-1.8-.5-3.7-.6-5.5h-14.9c-.2-2.1-.3-4.3-.3-6.4s.1-5.3.4-8h5c.1-1.3.3-2.6.5-3.8,1.1-7.8,3.3-15.3,6.4-22.2h5c.4-.9.8-1.8,1.3-2.7h-5c.7-1.5,1.5-2.9,2.3-4.3h-9.9c3-5.3,6.6-10.3,10.7-14.8h14.9c6.1-6.9,13.3-12.8,21.4-17.4h5c2.2-1.3,4.5-2.5,6.8-3.6h-9.9c11.4-5.3,24-8.3,37.2-8.3s25.3,3,36.7,8.3h9.9c2.3,1.1,4.5,2.3,6.7,3.6h-5c8,4.7,15.1,10.5,20.8,17.4h-14.9c2.4,2.9,4.6,5.9,6.5,9.1h23.1c-1.3-3-2.8-6.1-4.7-9.1h14.9c-3.7-6-8.6-11.9-14.4-17.4h5c-1.3-1.2-2.6-2.4-4-3.6h-9.9c-5.3-4.5-11.2-8.6-17.7-12.3h-6.8c-4.9-2.7-10.1-5.1-15.6-7.2h28.2c-4.1-1.5-8.2-2.8-12.5-3.8h-21.4c-8-2-16.5-3.1-25.2-3.1s-17.4,1.1-25.6,3.1h21.4c-4.3,1-8.5,2.3-12.5,3.8h-28.2c-5.4,2-10.5,4.4-15.4,7.2h6.8c-6.2,3.5-12,7.6-17.4,12.3h9.9c-1.3,1.2-2.6,2.3-3.9,3.6h-5c-5.5,5.3-10.4,11.1-14.6,17.4h-14.9c-3.1,4.7-5.9,9.6-8.2,14.8h9.9c-.6,1.4-1.2,2.9-1.8,4.3h5c-.3.9-.7,1.8-1,2.7h-5c-2.6,7.1-4.3,14.5-5.2,22.2-.1,1.3-.3,2.6-.4,3.8h-5c-.2,2.5-.3,5.1-.3,7.7s.1,4.5.2,6.7h14.9c.1,1.9.3,3.7.5,5.5h-14.9c.2,1.8.5,3.7.8,5.5h14.9c.3,1.8.7,3.7,1.1,5.5h-9.9c2.5,10.2,6.5,19.7,11.8,28.4h-9.9c1,1.6,2,3.1,3,4.6h9.9c3.1,4.5,6.5,8.7,10.3,12.6h5c3.7,3.9,7.7,7.5,11.9,10.8h-14.9c4.6,3.6,9.5,6.8,14.6,9.6h19.8c7.4,4.1,15.2,7.3,23.3,9.6h-9.9c9.4,2.7,19.1,4.1,28.9,4.1s20.2-1.4,29.6-4.1h9.9c8.1-2.3,15.8-5.6,23-9.6h-19.8c5-2.8,9.8-6,14.3-9.6h14.9c4.1-3.3,8-6.9,11.6-10.8h-5c3.6-3.9,6.9-8.2,9.9-12.6h-9.9c1-1.5,2-3,2.9-4.6h9.9c5.2-8.7,9.1-18.3,11.5-28.4h9.9c.4-1.8.8-3.6,1.1-5.5h-14.9c.3-1.8.6-3.6.8-5.5h14.9Z"/>
  </g>
</svg>